<svg xmlns="http://www.w3.org/2000/svg" xmlns:xlink="http://www.w3.org/1999/xlink" width="500" zoomAndPan="magnify" viewBox="0 0 375 374.999991" height="500" preserveAspectRatio="xMidYMid meet" version="1.0"><defs><g/><clipPath id="6be5ef78df"><path d="M 9.375 224 L 95 224 L 95 269 L 9.375 269 Z M 9.375 224 " clip-rule="nonzero"/></clipPath><clipPath id="20de7f040a"><path d="M 18 159 L 100.78125 159 L 100.78125 219 L 18 219 Z M 18 159 " clip-rule="nonzero"/></clipPath></defs><g clip-path="url(#6be5ef78df)"><path fill="#004aad" d="M 94.242188 224.5625 L 94.242188 227.199219 C 94.242188 249.90625 75.835938 268.316406 53.125 268.316406 C 28.960938 268.316406 9.375 248.730469 9.375 224.566406 L 94.242188 224.566406 Z M 94.242188 224.5625 " fill-opacity="1" fill-rule="nonzero"/></g><g clip-path="url(#20de7f040a)"><path fill="#ff3131" d="M 100.4375 188.984375 L 99.539062 191.457031 C 91.78125 212.800781 68.191406 223.8125 46.851562 216.058594 C 24.140625 207.804688 12.421875 182.707031 20.675781 159.996094 Z M 100.4375 188.984375 " fill-opacity="1" fill-rule="nonzero"/></g><path fill="#ffbd59" d="M 97.714844 154.050781 C 97.714844 154.617188 97.6875 155.179688 97.632812 155.742188 C 97.574219 156.304688 97.492188 156.859375 97.382812 157.414062 C 97.273438 157.96875 97.136719 158.515625 96.972656 159.054688 C 96.808594 159.597656 96.617188 160.128906 96.402344 160.648438 C 96.1875 161.171875 95.945312 161.679688 95.679688 162.179688 C 95.414062 162.675781 95.121094 163.160156 94.808594 163.628906 C 94.496094 164.097656 94.160156 164.550781 93.800781 164.988281 C 93.441406 165.425781 93.0625 165.84375 92.664062 166.242188 C 92.265625 166.640625 91.847656 167.019531 91.410156 167.378906 C 90.972656 167.738281 90.519531 168.074219 90.050781 168.386719 C 89.582031 168.699219 89.097656 168.988281 88.601562 169.257812 C 88.101562 169.523438 87.59375 169.761719 87.070312 169.980469 C 86.550781 170.195312 86.019531 170.386719 85.476562 170.550781 C 84.9375 170.714844 84.390625 170.851562 83.835938 170.960938 C 83.28125 171.070312 82.726562 171.152344 82.164062 171.207031 C 81.601562 171.265625 81.039062 171.292969 80.472656 171.292969 C 79.910156 171.292969 79.34375 171.265625 78.785156 171.207031 C 78.222656 171.152344 77.664062 171.070312 77.109375 170.960938 C 76.554688 170.851562 76.007812 170.714844 75.46875 170.550781 C 74.929688 170.386719 74.398438 170.195312 73.875 169.980469 C 73.355469 169.761719 72.84375 169.523438 72.347656 169.257812 C 71.847656 168.988281 71.363281 168.699219 70.894531 168.386719 C 70.425781 168.074219 69.972656 167.738281 69.535156 167.378906 C 69.097656 167.019531 68.679688 166.640625 68.28125 166.242188 C 67.882812 165.84375 67.503906 165.425781 67.144531 164.988281 C 66.789062 164.550781 66.453125 164.097656 66.136719 163.628906 C 65.824219 163.160156 65.535156 162.675781 65.269531 162.179688 C 65 161.679688 64.761719 161.171875 64.542969 160.648438 C 64.328125 160.128906 64.136719 159.597656 63.976562 159.054688 C 63.8125 158.515625 63.671875 157.96875 63.5625 157.414062 C 63.453125 156.859375 63.371094 156.304688 63.316406 155.742188 C 63.261719 155.179688 63.230469 154.617188 63.230469 154.050781 C 63.230469 153.484375 63.261719 152.921875 63.316406 152.359375 C 63.371094 151.800781 63.453125 151.242188 63.5625 150.6875 C 63.671875 150.132812 63.8125 149.585938 63.976562 149.046875 C 64.136719 148.503906 64.328125 147.976562 64.542969 147.453125 C 64.761719 146.929688 65 146.421875 65.269531 145.921875 C 65.535156 145.425781 65.824219 144.941406 66.136719 144.472656 C 66.453125 144.003906 66.789062 143.550781 67.144531 143.113281 C 67.503906 142.675781 67.882812 142.257812 68.28125 141.859375 C 68.679688 141.460938 69.097656 141.082031 69.535156 140.722656 C 69.972656 140.367188 70.425781 140.027344 70.894531 139.714844 C 71.363281 139.402344 71.847656 139.113281 72.347656 138.847656 C 72.84375 138.578125 73.355469 138.339844 73.875 138.121094 C 74.398438 137.90625 74.929688 137.714844 75.46875 137.550781 C 76.007812 137.386719 76.554688 137.25 77.109375 137.140625 C 77.664062 137.03125 78.222656 136.949219 78.785156 136.894531 C 79.34375 136.835938 79.910156 136.808594 80.472656 136.808594 C 81.039062 136.808594 81.601562 136.835938 82.164062 136.894531 C 82.726562 136.949219 83.28125 137.03125 83.835938 137.140625 C 84.390625 137.25 84.9375 137.386719 85.476562 137.550781 C 86.019531 137.714844 86.550781 137.90625 87.070312 138.121094 C 87.59375 138.339844 88.101562 138.578125 88.601562 138.847656 C 89.097656 139.113281 89.582031 139.402344 90.050781 139.714844 C 90.519531 140.027344 90.972656 140.367188 91.410156 140.722656 C 91.847656 141.082031 92.265625 141.460938 92.664062 141.859375 C 93.0625 142.257812 93.441406 142.675781 93.800781 143.113281 C 94.160156 143.550781 94.496094 144.003906 94.808594 144.472656 C 95.121094 144.941406 95.414062 145.425781 95.679688 145.921875 C 95.945312 146.421875 96.1875 146.929688 96.402344 147.453125 C 96.617188 147.976562 96.808594 148.503906 96.972656 149.046875 C 97.136719 149.585938 97.273438 150.132812 97.382812 150.6875 C 97.492188 151.242188 97.574219 151.800781 97.632812 152.359375 C 97.6875 152.921875 97.714844 153.484375 97.714844 154.050781 Z M 97.714844 154.050781 " fill-opacity="1" fill-rule="nonzero"/><g fill="#004aad" fill-opacity="1"><g transform="translate(109.422038, 176.044539)"><g><path d="M 2.5625 -34.453125 L 13.984375 -34.453125 L 20.71875 -14.90625 L 20.875 -14.90625 L 27.609375 -34.453125 L 39.03125 -34.453125 L 39.03125 0 L 31.5 0 L 31.5 -23.625 L 31.296875 -23.625 L 23.234375 0 L 18.359375 0 L 10.28125 -23.625 L 10.09375 -23.625 L 10.09375 0 L 2.5625 0 Z M 2.5625 -34.453125 "/></g></g></g><g fill="#004aad" fill-opacity="1"><g transform="translate(151.007441, 176.044539)"><g><path d="M 15.65625 -34.453125 C 18.375 -34.453125 20.675781 -33.894531 22.5625 -32.78125 C 24.445312 -31.664062 25.847656 -30.1875 26.765625 -28.34375 C 27.691406 -26.507812 28.15625 -24.523438 28.15625 -22.390625 C 28.15625 -20.296875 27.703125 -18.351562 26.796875 -16.5625 C 25.898438 -14.769531 24.503906 -13.332031 22.609375 -12.25 C 20.722656 -11.164062 18.40625 -10.625 15.65625 -10.625 L 10.09375 -10.625 L 10.09375 0 L 2.5625 0 L 2.5625 -34.453125 Z M 14.421875 -16.9375 C 16.191406 -16.9375 17.679688 -17.351562 18.890625 -18.1875 C 20.109375 -19.019531 20.71875 -20.421875 20.71875 -22.390625 C 20.71875 -24.359375 20.117188 -25.734375 18.921875 -26.515625 C 17.722656 -27.304688 16.222656 -27.703125 14.421875 -27.703125 L 10.09375 -27.703125 L 10.09375 -16.9375 Z M 14.421875 -16.9375 "/></g></g></g><g fill="#004aad" fill-opacity="1"><g transform="translate(179.846552, 176.044539)"><g><path d="M 2.5625 -34.5 L 16.140625 -34.5 C 19.191406 -34.5 21.878906 -33.816406 24.203125 -32.453125 C 26.535156 -31.097656 28.347656 -29.128906 29.640625 -26.546875 C 30.941406 -23.972656 31.59375 -20.898438 31.59375 -17.328125 C 31.59375 -13.679688 30.9375 -10.5625 29.625 -7.96875 C 28.3125 -5.375 26.484375 -3.40625 24.140625 -2.0625 C 21.796875 -0.71875 19.097656 -0.046875 16.046875 -0.046875 L 2.5625 -0.046875 Z M 14.625 -6.9375 C 17.3125 -6.9375 19.441406 -7.707031 21.015625 -9.25 C 22.585938 -10.789062 23.375 -13.484375 23.375 -17.328125 C 23.375 -21.160156 22.59375 -23.847656 21.03125 -25.390625 C 19.476562 -26.929688 17.34375 -27.703125 14.625 -27.703125 L 9.984375 -27.703125 L 9.984375 -6.9375 Z M 14.625 -6.9375 "/></g></g></g><g fill="#004aad" fill-opacity="1"><g transform="translate(213.164082, 176.044539)"><g><path d="M 2.90625 -34.453125 L 10.625 -34.453125 L 10.625 0 L 2.90625 0 Z M 2.90625 -34.453125 "/></g></g></g><g fill="#004aad" fill-opacity="1"><g transform="translate(226.747001, 176.044539)"><g><path d="M 16.9375 0.4375 C 13.71875 0.4375 10.984375 -0.394531 8.734375 -2.0625 C 6.484375 -3.738281 4.800781 -5.921875 3.6875 -8.609375 C 2.570312 -11.304688 2.015625 -14.175781 2.015625 -17.21875 C 2.015625 -20.375 2.597656 -23.3125 3.765625 -26.03125 C 4.929688 -28.757812 6.691406 -30.957031 9.046875 -32.625 C 11.410156 -34.300781 14.300781 -35.140625 17.71875 -35.140625 C 21.625 -35.140625 24.832031 -34.046875 27.34375 -31.859375 C 29.851562 -29.679688 31.613281 -26.835938 32.625 -23.328125 L 24.5625 -23.328125 C 24.132812 -24.867188 23.34375 -26.097656 22.1875 -27.015625 C 21.039062 -27.941406 19.566406 -28.40625 17.765625 -28.40625 C 15.171875 -28.40625 13.1875 -27.367188 11.8125 -25.296875 C 10.4375 -23.234375 9.75 -20.476562 9.75 -17.03125 C 9.75 -13.414062 10.484375 -10.613281 11.953125 -8.625 C 13.429688 -6.644531 15.5 -5.65625 18.15625 -5.65625 C 20.457031 -5.65625 22.207031 -6.359375 23.40625 -7.765625 C 24.601562 -9.179688 25.21875 -10.84375 25.25 -12.75 L 25.25 -13.390625 L 18.796875 -13.390625 L 18.796875 -18.84375 L 32.78125 -18.84375 L 32.78125 0 L 27.125 0 L 27.125 -4.875 L 26.71875 -4.875 C 24.789062 -1.332031 21.53125 0.4375 16.9375 0.4375 Z M 16.9375 0.4375 "/></g></g></g><g fill="#004aad" fill-opacity="1"><g transform="translate(262.033076, 176.044539)"><g><path d="M 2.90625 -34.453125 L 10.625 -34.453125 L 10.625 0 L 2.90625 0 Z M 2.90625 -34.453125 "/></g></g></g><g fill="#004aad" fill-opacity="1"><g transform="translate(275.615995, 176.044539)"><g><path d="M 27.46875 -27.765625 L 18.40625 -27.765625 L 18.40625 0 L 10.78125 0 L 10.78125 -27.765625 L 1.71875 -27.765625 L 1.71875 -34.453125 L 27.46875 -34.453125 Z M 27.46875 -27.765625 "/></g></g></g><g fill="#004aad" fill-opacity="1"><g transform="translate(304.848813, 176.044539)"><g><path d="M 22.140625 -7.96875 L 11.125 -7.96875 L 8.65625 0 L 0.890625 0 L 13.140625 -34.453125 L 20.28125 -34.453125 L 32.4375 0 L 24.65625 0 Z M 20.28125 -13.828125 L 16.734375 -24.953125 L 16.4375 -24.953125 L 13 -13.828125 Z M 20.28125 -13.828125 "/></g></g></g><g fill="#004aad" fill-opacity="1"><g transform="translate(337.96949, 176.044539)"><g><path d="M 24.75 -6.6875 L 24.75 0 L 2.5625 0 L 2.5625 -34.453125 L 10.28125 -34.453125 L 10.234375 -6.6875 Z M 24.75 -6.6875 "/></g></g></g><g fill="#004aad" fill-opacity="1"><g transform="translate(109.422038, 224.531636)"><g><path d="M 14.25 0.375 C 11.726562 0.375 9.578125 -0.144531 7.796875 -1.1875 C 6.015625 -2.226562 4.671875 -3.570312 3.765625 -5.21875 C 2.867188 -6.863281 2.421875 -8.582031 2.421875 -10.375 L 2.421875 -10.609375 L 6.84375 -10.609375 L 6.84375 -10.375 C 6.84375 -9.289062 7.097656 -8.207031 7.609375 -7.125 C 8.117188 -6.039062 8.929688 -5.132812 10.046875 -4.40625 C 11.171875 -3.675781 12.601562 -3.3125 14.34375 -3.3125 C 16.382812 -3.3125 18.070312 -3.835938 19.40625 -4.890625 C 20.738281 -5.941406 21.40625 -7.367188 21.40625 -9.171875 C 21.40625 -10.660156 20.914062 -11.847656 19.9375 -12.734375 C 18.96875 -13.617188 17.722656 -14.210938 16.203125 -14.515625 L 11.453125 -15.40625 C 5.992188 -16.613281 3.265625 -19.484375 3.265625 -24.015625 C 3.265625 -25.878906 3.710938 -27.507812 4.609375 -28.90625 C 5.503906 -30.300781 6.75 -31.378906 8.34375 -32.140625 C 9.945312 -32.898438 11.804688 -33.28125 13.921875 -33.28125 C 16.304688 -33.28125 18.351562 -32.796875 20.0625 -31.828125 C 21.769531 -30.867188 23.054688 -29.617188 23.921875 -28.078125 C 24.796875 -26.546875 25.234375 -24.957031 25.234375 -23.3125 L 25.234375 -23.140625 L 20.8125 -23.140625 L 20.8125 -23.28125 C 20.8125 -24.207031 20.582031 -25.160156 20.125 -26.140625 C 19.675781 -27.117188 18.929688 -27.960938 17.890625 -28.671875 C 16.859375 -29.390625 15.488281 -29.75 13.78125 -29.75 C 11.820312 -29.75 10.257812 -29.203125 9.09375 -28.109375 C 7.9375 -27.023438 7.359375 -25.675781 7.359375 -24.0625 C 7.359375 -22.695312 7.804688 -21.578125 8.703125 -20.703125 C 9.597656 -19.835938 10.820312 -19.25 12.375 -18.9375 L 16.65625 -18.109375 C 22.644531 -16.898438 25.640625 -13.96875 25.640625 -9.3125 C 25.640625 -7.414062 25.164062 -5.738281 24.21875 -4.28125 C 23.28125 -2.820312 21.941406 -1.679688 20.203125 -0.859375 C 18.460938 -0.0351562 16.476562 0.375 14.25 0.375 Z M 14.25 0.375 "/></g></g></g><g fill="#004aad" fill-opacity="1"><g transform="translate(137.304134, 224.531636)"><g><path d="M 17.125 0.328125 C 14.019531 0.328125 11.359375 -0.382812 9.140625 -1.8125 C 6.921875 -3.238281 5.238281 -5.222656 4.09375 -7.765625 C 2.945312 -10.316406 2.375 -13.207031 2.375 -16.4375 C 2.375 -19.65625 2.953125 -22.546875 4.109375 -25.109375 C 5.273438 -27.671875 6.96875 -29.671875 9.1875 -31.109375 C 11.40625 -32.554688 14.050781 -33.28125 17.125 -33.28125 C 20.164062 -33.28125 22.785156 -32.554688 24.984375 -31.109375 C 27.191406 -29.671875 28.867188 -27.675781 30.015625 -25.125 C 31.171875 -22.582031 31.75 -19.671875 31.75 -16.390625 C 31.75 -13.128906 31.171875 -10.238281 30.015625 -7.71875 C 28.867188 -5.207031 27.191406 -3.238281 24.984375 -1.8125 C 22.785156 -0.382812 20.164062 0.328125 17.125 0.328125 Z M 17.078125 -3.390625 C 19.222656 -3.390625 21.085938 -3.941406 22.671875 -5.046875 C 24.253906 -6.148438 25.460938 -7.691406 26.296875 -9.671875 C 27.140625 -11.660156 27.5625 -13.929688 27.5625 -16.484375 C 27.5625 -19.023438 27.140625 -21.285156 26.296875 -23.265625 C 25.460938 -25.253906 24.253906 -26.804688 22.671875 -27.921875 C 21.085938 -29.046875 19.222656 -29.609375 17.078125 -29.609375 C 14.941406 -29.609375 13.082031 -29.039062 11.5 -27.90625 C 9.914062 -26.769531 8.703125 -25.207031 7.859375 -23.21875 C 7.023438 -21.238281 6.609375 -18.992188 6.609375 -16.484375 C 6.609375 -13.929688 7.023438 -11.671875 7.859375 -9.703125 C 8.703125 -7.734375 9.914062 -6.1875 11.5 -5.0625 C 13.082031 -3.945312 14.941406 -3.390625 17.078125 -3.390625 Z M 17.078125 -3.390625 "/></g></g></g><g fill="#004aad" fill-opacity="1"><g transform="translate(171.516721, 224.531636)"><g><path d="M 22.71875 -3.625 L 22.71875 0 L 3.484375 0 L 3.484375 -32.578125 L 7.546875 -32.578125 L 7.5 -3.625 Z M 22.71875 -3.625 "/></g></g></g><g fill="#004aad" fill-opacity="1"><g transform="translate(196.140474, 224.531636)"><g><path d="M 15.96875 0.421875 C 11.8125 0.421875 8.613281 -0.859375 6.375 -3.421875 C 4.144531 -5.984375 3.03125 -9.625 3.03125 -14.34375 L 3.03125 -32.578125 L 6.984375 -32.578125 L 6.984375 -14.46875 C 6.984375 -11.738281 7.578125 -9.21875 8.765625 -6.90625 C 9.960938 -4.59375 12.363281 -3.4375 15.96875 -3.4375 C 19.5 -3.4375 21.851562 -4.582031 23.03125 -6.875 C 24.21875 -9.175781 24.8125 -11.707031 24.8125 -14.46875 L 24.8125 -32.578125 L 28.765625 -32.578125 L 28.765625 -14.34375 C 28.765625 -9.625 27.65625 -5.984375 25.4375 -3.421875 C 23.21875 -0.859375 20.0625 0.421875 15.96875 0.421875 Z M 15.96875 0.421875 "/></g></g></g><g fill="#004aad" fill-opacity="1"><g transform="translate(227.979132, 224.531636)"><g><path d="M 25.28125 -28.953125 L 15.6875 -28.953125 L 15.6875 0 L 11.6875 0 L 11.6875 -28.953125 L 2.09375 -28.953125 L 2.09375 -32.578125 L 25.28125 -32.578125 Z M 25.28125 -28.953125 "/></g></g></g><g fill="#004aad" fill-opacity="1"><g transform="translate(255.39576, 224.531636)"><g><path d="M 3.625 -32.578125 L 7.6875 -32.578125 L 7.6875 0 L 3.625 0 Z M 3.625 -32.578125 "/></g></g></g><g fill="#004aad" fill-opacity="1"><g transform="translate(266.706855, 224.531636)"><g><path d="M 17.125 0.328125 C 14.019531 0.328125 11.359375 -0.382812 9.140625 -1.8125 C 6.921875 -3.238281 5.238281 -5.222656 4.09375 -7.765625 C 2.945312 -10.316406 2.375 -13.207031 2.375 -16.4375 C 2.375 -19.65625 2.953125 -22.546875 4.109375 -25.109375 C 5.273438 -27.671875 6.96875 -29.671875 9.1875 -31.109375 C 11.40625 -32.554688 14.050781 -33.28125 17.125 -33.28125 C 20.164062 -33.28125 22.785156 -32.554688 24.984375 -31.109375 C 27.191406 -29.671875 28.867188 -27.675781 30.015625 -25.125 C 31.171875 -22.582031 31.75 -19.671875 31.75 -16.390625 C 31.75 -13.128906 31.171875 -10.238281 30.015625 -7.71875 C 28.867188 -5.207031 27.191406 -3.238281 24.984375 -1.8125 C 22.785156 -0.382812 20.164062 0.328125 17.125 0.328125 Z M 17.078125 -3.390625 C 19.222656 -3.390625 21.085938 -3.941406 22.671875 -5.046875 C 24.253906 -6.148438 25.460938 -7.691406 26.296875 -9.671875 C 27.140625 -11.660156 27.5625 -13.929688 27.5625 -16.484375 C 27.5625 -19.023438 27.140625 -21.285156 26.296875 -23.265625 C 25.460938 -25.253906 24.253906 -26.804688 22.671875 -27.921875 C 21.085938 -29.046875 19.222656 -29.609375 17.078125 -29.609375 C 14.941406 -29.609375 13.082031 -29.039062 11.5 -27.90625 C 9.914062 -26.769531 8.703125 -25.207031 7.859375 -23.21875 C 7.023438 -21.238281 6.609375 -18.992188 6.609375 -16.484375 C 6.609375 -13.929688 7.023438 -11.671875 7.859375 -9.703125 C 8.703125 -7.734375 9.914062 -6.1875 11.5 -5.0625 C 13.082031 -3.945312 14.941406 -3.390625 17.078125 -3.390625 Z M 17.078125 -3.390625 "/></g></g></g><g fill="#004aad" fill-opacity="1"><g transform="translate(300.919441, 224.531636)"><g><path d="M 3.484375 -32.578125 L 8 -32.578125 L 25.46875 -6.421875 L 25.640625 -6.421875 L 25.640625 -32.578125 L 29.609375 -32.578125 L 29.609375 0 L 25.046875 0 L 7.640625 -25.78125 L 7.453125 -25.78125 L 7.453125 0 L 3.484375 0 Z M 3.484375 -32.578125 "/></g></g></g><g fill="#004aad" fill-opacity="1"><g transform="translate(334.014893, 224.531636)"><g><path d="M 14.25 0.375 C 11.726562 0.375 9.578125 -0.144531 7.796875 -1.1875 C 6.015625 -2.226562 4.671875 -3.570312 3.765625 -5.21875 C 2.867188 -6.863281 2.421875 -8.582031 2.421875 -10.375 L 2.421875 -10.609375 L 6.84375 -10.609375 L 6.84375 -10.375 C 6.84375 -9.289062 7.097656 -8.207031 7.609375 -7.125 C 8.117188 -6.039062 8.929688 -5.132812 10.046875 -4.40625 C 11.171875 -3.675781 12.601562 -3.3125 14.34375 -3.3125 C 16.382812 -3.3125 18.070312 -3.835938 19.40625 -4.890625 C 20.738281 -5.941406 21.40625 -7.367188 21.40625 -9.171875 C 21.40625 -10.660156 20.914062 -11.847656 19.9375 -12.734375 C 18.96875 -13.617188 17.722656 -14.210938 16.203125 -14.515625 L 11.453125 -15.40625 C 5.992188 -16.613281 3.265625 -19.484375 3.265625 -24.015625 C 3.265625 -25.878906 3.710938 -27.507812 4.609375 -28.90625 C 5.503906 -30.300781 6.75 -31.378906 8.34375 -32.140625 C 9.945312 -32.898438 11.804688 -33.28125 13.921875 -33.28125 C 16.304688 -33.28125 18.351562 -32.796875 20.0625 -31.828125 C 21.769531 -30.867188 23.054688 -29.617188 23.921875 -28.078125 C 24.796875 -26.546875 25.234375 -24.957031 25.234375 -23.3125 L 25.234375 -23.140625 L 20.8125 -23.140625 L 20.8125 -23.28125 C 20.8125 -24.207031 20.582031 -25.160156 20.125 -26.140625 C 19.675781 -27.117188 18.929688 -27.960938 17.890625 -28.671875 C 16.859375 -29.390625 15.488281 -29.75 13.78125 -29.75 C 11.820312 -29.75 10.257812 -29.203125 9.09375 -28.109375 C 7.9375 -27.023438 7.359375 -25.675781 7.359375 -24.0625 C 7.359375 -22.695312 7.804688 -21.578125 8.703125 -20.703125 C 9.597656 -19.835938 10.820312 -19.25 12.375 -18.9375 L 16.65625 -18.109375 C 22.644531 -16.898438 25.640625 -13.96875 25.640625 -9.3125 C 25.640625 -7.414062 25.164062 -5.738281 24.21875 -4.28125 C 23.28125 -2.820312 21.941406 -1.679688 20.203125 -0.859375 C 18.460938 -0.0351562 16.476562 0.375 14.25 0.375 Z M 14.25 0.375 "/></g></g></g><g fill="#004aad" fill-opacity="1"><g transform="translate(109.479167, 257.14976)"><g><path d="M 5.734375 0.15625 C 4.722656 0.15625 3.859375 -0.0507812 3.140625 -0.46875 C 2.421875 -0.894531 1.878906 -1.4375 1.515625 -2.09375 C 1.148438 -2.757812 0.96875 -3.453125 0.96875 -4.171875 L 0.96875 -4.265625 L 2.75 -4.265625 L 2.75 -4.171875 C 2.75 -3.734375 2.851562 -3.296875 3.0625 -2.859375 C 3.269531 -2.421875 3.597656 -2.054688 4.046875 -1.765625 C 4.492188 -1.472656 5.066406 -1.328125 5.765625 -1.328125 C 6.585938 -1.328125 7.269531 -1.539062 7.8125 -1.96875 C 8.351562 -2.394531 8.625 -2.96875 8.625 -3.6875 C 8.625 -4.289062 8.425781 -4.769531 8.03125 -5.125 C 7.632812 -5.476562 7.128906 -5.71875 6.515625 -5.84375 L 4.609375 -6.203125 C 2.410156 -6.691406 1.3125 -7.847656 1.3125 -9.671875 C 1.3125 -10.421875 1.488281 -11.078125 1.84375 -11.640625 C 2.207031 -12.203125 2.710938 -12.632812 3.359375 -12.9375 C 4.003906 -13.238281 4.753906 -13.390625 5.609375 -13.390625 C 6.566406 -13.390625 7.390625 -13.195312 8.078125 -12.8125 C 8.765625 -12.425781 9.28125 -11.921875 9.625 -11.296875 C 9.976562 -10.679688 10.15625 -10.046875 10.15625 -9.390625 L 10.15625 -9.3125 L 8.375 -9.3125 L 8.375 -9.375 C 8.375 -9.738281 8.28125 -10.117188 8.09375 -10.515625 C 7.914062 -10.910156 7.617188 -11.25 7.203125 -11.53125 C 6.785156 -11.820312 6.234375 -11.96875 5.546875 -11.96875 C 4.753906 -11.96875 4.125 -11.75 3.65625 -11.3125 C 3.1875 -10.875 2.953125 -10.332031 2.953125 -9.6875 C 2.953125 -9.132812 3.132812 -8.679688 3.5 -8.328125 C 3.863281 -7.984375 4.359375 -7.75 4.984375 -7.625 L 6.703125 -7.28125 C 9.117188 -6.800781 10.328125 -5.625 10.328125 -3.75 C 10.328125 -2.988281 10.132812 -2.3125 9.75 -1.71875 C 9.375 -1.132812 8.832031 -0.675781 8.125 -0.34375 C 7.425781 -0.0078125 6.628906 0.15625 5.734375 0.15625 Z M 5.734375 0.15625 "/></g></g></g><g fill="#004aad" fill-opacity="1"><g transform="translate(120.751065, 257.14976)"><g><path d="M 1.40625 -9.875 L 3 -9.875 L 3 -8.0625 L 3.140625 -8.0625 C 3.171875 -8.1875 3.296875 -8.410156 3.515625 -8.734375 C 3.742188 -9.066406 4.085938 -9.382812 4.546875 -9.6875 C 5.015625 -9.988281 5.59375 -10.140625 6.28125 -10.140625 C 7 -10.140625 7.597656 -9.96875 8.078125 -9.625 C 8.566406 -9.289062 8.925781 -8.929688 9.15625 -8.546875 C 9.394531 -8.160156 9.515625 -7.914062 9.515625 -7.8125 L 9.671875 -7.8125 C 9.835938 -8.25 10.179688 -8.742188 10.703125 -9.296875 C 11.222656 -9.859375 12.019531 -10.140625 13.09375 -10.140625 C 13.894531 -10.140625 14.5625 -9.9375 15.09375 -9.53125 C 15.632812 -9.125 16.03125 -8.597656 16.28125 -7.953125 C 16.539062 -7.316406 16.671875 -6.640625 16.671875 -5.921875 L 16.671875 0 L 15.078125 0 L 15.078125 -5.765625 C 15.078125 -6.710938 14.828125 -7.429688 14.328125 -7.921875 C 13.835938 -8.410156 13.234375 -8.65625 12.515625 -8.65625 C 11.765625 -8.65625 11.128906 -8.398438 10.609375 -7.890625 C 10.085938 -7.390625 9.828125 -6.679688 9.828125 -5.765625 L 9.828125 0 L 8.25 0 L 8.25 -5.765625 C 8.25 -6.710938 8 -7.429688 7.5 -7.921875 C 7.007812 -8.410156 6.398438 -8.65625 5.671875 -8.65625 C 4.921875 -8.65625 4.285156 -8.398438 3.765625 -7.890625 C 3.253906 -7.390625 3 -6.679688 3 -5.765625 L 3 0 L 1.40625 0 Z M 1.40625 -9.875 "/></g></g></g><g fill="#004aad" fill-opacity="1"><g transform="translate(138.744898, 257.14976)"><g><path d="M 5.015625 0.125 C 4.140625 0.125 3.394531 -0.0976562 2.78125 -0.546875 C 2.164062 -0.992188 1.691406 -1.601562 1.359375 -2.375 C 1.035156 -3.15625 0.875 -4.03125 0.875 -5 C 0.875 -5.976562 1.039062 -6.859375 1.375 -7.640625 C 1.707031 -8.421875 2.1875 -9.03125 2.8125 -9.46875 C 3.445312 -9.914062 4.203125 -10.140625 5.078125 -10.140625 C 5.953125 -10.140625 6.65625 -9.929688 7.1875 -9.515625 C 7.726562 -9.109375 8.132812 -8.613281 8.40625 -8.03125 L 8.546875 -8.03125 L 8.546875 -9.875 L 10.171875 -9.875 L 10.171875 0 L 8.546875 0 L 8.546875 -2.015625 L 8.40625 -2.015625 C 8.113281 -1.429688 7.691406 -0.925781 7.140625 -0.5 C 6.585938 -0.0820312 5.878906 0.125 5.015625 0.125 Z M 5.53125 -1.25 C 6.488281 -1.25 7.222656 -1.609375 7.734375 -2.328125 C 8.242188 -3.046875 8.5 -3.9375 8.5 -5 C 8.5 -6.0625 8.242188 -6.953125 7.734375 -7.671875 C 7.222656 -8.390625 6.488281 -8.75 5.53125 -8.75 C 4.539062 -8.75 3.789062 -8.390625 3.28125 -7.671875 C 2.78125 -6.960938 2.53125 -6.078125 2.53125 -5.015625 C 2.53125 -3.941406 2.78125 -3.046875 3.28125 -2.328125 C 3.789062 -1.609375 4.539062 -1.25 5.53125 -1.25 Z M 5.53125 -1.25 "/></g></g></g><g fill="#004aad" fill-opacity="1"><g transform="translate(150.353823, 257.14976)"><g><path d="M 1.328125 -9.875 L 2.9375 -9.875 L 2.9375 -8.296875 L 3.046875 -8.296875 C 3.210938 -8.734375 3.503906 -9.101562 3.921875 -9.40625 C 4.335938 -9.71875 4.867188 -9.875 5.515625 -9.875 C 5.710938 -9.875 5.867188 -9.863281 5.984375 -9.84375 C 6.097656 -9.820312 6.234375 -9.785156 6.390625 -9.734375 L 6.328125 -8.171875 C 6.128906 -8.234375 5.957031 -8.273438 5.8125 -8.296875 C 5.675781 -8.328125 5.492188 -8.34375 5.265625 -8.34375 C 3.710938 -8.34375 2.9375 -7.421875 2.9375 -5.578125 L 2.9375 0 L 1.328125 0 Z M 1.328125 -9.875 "/></g></g></g><g fill="#004aad" fill-opacity="1"><g transform="translate(156.963411, 257.14976)"><g><path d="M 4.046875 -8.578125 L 4.046875 -2.84375 C 4.046875 -2.382812 4.066406 -2.046875 4.109375 -1.828125 C 4.148438 -1.609375 4.269531 -1.4375 4.46875 -1.3125 C 4.664062 -1.1875 4.984375 -1.125 5.421875 -1.125 C 5.710938 -1.125 6.035156 -1.164062 6.390625 -1.25 L 6.390625 -0.09375 C 6.296875 -0.0507812 6.101562 -0.015625 5.8125 0.015625 C 5.519531 0.0546875 5.21875 0.078125 4.90625 0.078125 C 4.1875 0.078125 3.644531 -0.0234375 3.28125 -0.234375 C 2.925781 -0.441406 2.695312 -0.722656 2.59375 -1.078125 C 2.488281 -1.429688 2.4375 -1.898438 2.4375 -2.484375 L 2.4375 -8.578125 L 0.59375 -8.578125 L 0.59375 -9.875 L 2.4375 -9.875 L 2.4375 -13.109375 L 4.046875 -13.109375 L 4.046875 -9.875 L 6.390625 -9.875 L 6.390625 -8.578125 Z M 4.046875 -8.578125 "/></g></g></g><g fill="#004aad" fill-opacity="1"><g transform="translate(164.321966, 257.14976)"><g/></g></g><g fill="#004aad" fill-opacity="1"><g transform="translate(168.628503, 257.14976)"><g><path d="M 9.046875 -3.828125 L 3.703125 -3.828125 L 2.328125 0 L 0.671875 0 L 5.609375 -13.109375 L 7.140625 -13.109375 L 12.109375 0 L 10.453125 0 Z M 8.578125 -5.109375 L 6.390625 -11.046875 L 6.3125 -11.046875 L 4.171875 -5.109375 Z M 8.578125 -5.109375 "/></g></g></g><g fill="#004aad" fill-opacity="1"><g transform="translate(180.85519, 257.14976)"><g><path d="M 5.0625 0.125 C 4.1875 0.125 3.4375 -0.0976562 2.8125 -0.546875 C 2.195312 -0.992188 1.726562 -1.601562 1.40625 -2.375 C 1.082031 -3.15625 0.921875 -4.03125 0.921875 -5 C 0.921875 -5.988281 1.082031 -6.867188 1.40625 -7.640625 C 1.726562 -8.421875 2.203125 -9.03125 2.828125 -9.46875 C 3.453125 -9.914062 4.207031 -10.140625 5.09375 -10.140625 C 5.96875 -10.140625 6.675781 -9.925781 7.21875 -9.5 C 7.757812 -9.082031 8.164062 -8.59375 8.4375 -8.03125 L 8.578125 -8.03125 L 8.578125 -14.046875 L 10.1875 -14.046875 L 10.1875 0 L 8.578125 0 L 8.578125 -2.015625 L 8.4375 -2.015625 C 8.132812 -1.421875 7.707031 -0.914062 7.15625 -0.5 C 6.613281 -0.0820312 5.914062 0.125 5.0625 0.125 Z M 5.546875 -1.25 C 6.515625 -1.25 7.253906 -1.609375 7.765625 -2.328125 C 8.285156 -3.046875 8.546875 -3.9375 8.546875 -5 C 8.546875 -6.0625 8.285156 -6.945312 7.765625 -7.65625 C 7.253906 -8.375 6.515625 -8.734375 5.546875 -8.734375 C 4.554688 -8.734375 3.8125 -8.375 3.3125 -7.65625 C 2.8125 -6.945312 2.5625 -6.0625 2.5625 -5 C 2.5625 -3.925781 2.8125 -3.03125 3.3125 -2.3125 C 3.820312 -1.601562 4.566406 -1.25 5.546875 -1.25 Z M 5.546875 -1.25 "/></g></g></g><g fill="#004aad" fill-opacity="1"><g transform="translate(192.445384, 257.14976)"><g><path d="M 4.78125 0.125 C 3.976562 0.125 3.28125 -0.03125 2.6875 -0.34375 C 2.101562 -0.664062 1.660156 -1.078125 1.359375 -1.578125 C 1.054688 -2.078125 0.90625 -2.597656 0.90625 -3.140625 L 0.90625 -3.234375 L 2.515625 -3.234375 L 2.515625 -3.171875 C 2.515625 -2.859375 2.597656 -2.546875 2.765625 -2.234375 C 2.941406 -1.929688 3.203125 -1.679688 3.546875 -1.484375 C 3.898438 -1.296875 4.328125 -1.203125 4.828125 -1.203125 C 5.429688 -1.203125 5.925781 -1.347656 6.3125 -1.640625 C 6.707031 -1.929688 6.90625 -2.332031 6.90625 -2.84375 C 6.90625 -3.269531 6.753906 -3.609375 6.453125 -3.859375 C 6.148438 -4.109375 5.765625 -4.269531 5.296875 -4.34375 L 4.015625 -4.53125 C 3.203125 -4.65625 2.519531 -4.929688 1.96875 -5.359375 C 1.414062 -5.796875 1.140625 -6.425781 1.140625 -7.25 C 1.140625 -8.164062 1.46875 -8.875 2.125 -9.375 C 2.78125 -9.882812 3.617188 -10.140625 4.640625 -10.140625 C 5.398438 -10.140625 6.050781 -10 6.59375 -9.71875 C 7.144531 -9.4375 7.5625 -9.066406 7.84375 -8.609375 C 8.132812 -8.148438 8.28125 -7.65625 8.28125 -7.125 L 8.28125 -7.046875 L 6.671875 -7.046875 L 6.671875 -7.078125 C 6.671875 -7.328125 6.601562 -7.585938 6.46875 -7.859375 C 6.34375 -8.140625 6.125 -8.378906 5.8125 -8.578125 C 5.5 -8.773438 5.097656 -8.875 4.609375 -8.875 C 4.003906 -8.875 3.519531 -8.726562 3.15625 -8.4375 C 2.800781 -8.144531 2.625 -7.757812 2.625 -7.28125 C 2.625 -6.894531 2.765625 -6.578125 3.046875 -6.328125 C 3.335938 -6.078125 3.703125 -5.914062 4.140625 -5.84375 L 5.546875 -5.625 C 6.367188 -5.488281 7.0625 -5.203125 7.625 -4.765625 C 8.1875 -4.335938 8.46875 -3.703125 8.46875 -2.859375 C 8.46875 -2.265625 8.304688 -1.742188 7.984375 -1.296875 C 7.671875 -0.847656 7.234375 -0.5 6.671875 -0.25 C 6.109375 0 5.476562 0.125 4.78125 0.125 Z M 4.78125 0.125 "/></g></g></g><g fill="#004aad" fill-opacity="1"><g transform="translate(201.732527, 257.14976)"><g><path d="M 1.84375 2.328125 C 2.601562 1.984375 2.984375 1.484375 2.984375 0.828125 C 2.984375 0.515625 2.925781 0.316406 2.8125 0.234375 C 2.707031 0.148438 2.550781 0.109375 2.34375 0.109375 C 1.71875 0.109375 1.40625 -0.195312 1.40625 -0.8125 C 1.40625 -1.144531 1.503906 -1.410156 1.703125 -1.609375 C 1.910156 -1.804688 2.203125 -1.90625 2.578125 -1.90625 C 3.472656 -1.90625 3.921875 -1.425781 3.921875 -0.46875 L 3.921875 0.203125 C 3.921875 0.984375 3.726562 1.597656 3.34375 2.046875 C 2.957031 2.503906 2.457031 2.828125 1.84375 3.015625 Z M 1.84375 2.328125 "/></g></g></g><g fill="#004aad" fill-opacity="1"><g transform="translate(207.087608, 257.14976)"><g><path d="M 1.40625 -13.109375 L 6.65625 -13.109375 C 7.53125 -13.109375 8.242188 -12.941406 8.796875 -12.609375 C 9.347656 -12.273438 9.742188 -11.851562 9.984375 -11.34375 C 10.222656 -10.832031 10.34375 -10.3125 10.34375 -9.78125 C 10.34375 -9.21875 10.222656 -8.726562 9.984375 -8.3125 C 9.742188 -7.90625 9.457031 -7.585938 9.125 -7.359375 C 8.789062 -7.140625 8.472656 -7 8.171875 -6.9375 L 8.171875 -6.8125 C 8.492188 -6.789062 8.867188 -6.675781 9.296875 -6.46875 C 9.734375 -6.257812 10.113281 -5.925781 10.4375 -5.46875 C 10.769531 -5.019531 10.9375 -4.445312 10.9375 -3.75 C 10.9375 -3.125 10.796875 -2.523438 10.515625 -1.953125 C 10.234375 -1.390625 9.789062 -0.921875 9.1875 -0.546875 C 8.59375 -0.179688 7.847656 0 6.953125 0 L 1.40625 0 Z M 6.1875 -7.359375 C 6.894531 -7.359375 7.503906 -7.539062 8.015625 -7.90625 C 8.523438 -8.28125 8.78125 -8.851562 8.78125 -9.625 C 8.78125 -10.363281 8.535156 -10.898438 8.046875 -11.234375 C 7.554688 -11.578125 6.9375 -11.75 6.1875 -11.75 L 2.984375 -11.75 L 2.984375 -7.359375 Z M 6.53125 -1.375 C 7.34375 -1.375 8.019531 -1.554688 8.5625 -1.921875 C 9.101562 -2.296875 9.375 -2.910156 9.375 -3.765625 C 9.375 -4.597656 9.101562 -5.191406 8.5625 -5.546875 C 8.019531 -5.910156 7.34375 -6.09375 6.53125 -6.09375 L 2.984375 -6.09375 L 2.984375 -1.375 Z M 6.53125 -1.375 "/></g></g></g><g fill="#004aad" fill-opacity="1"><g transform="translate(218.771431, 257.14976)"><g><path d="M 1.53125 -9.875 L 3.140625 -9.875 L 3.140625 0 L 1.53125 0 Z M 2.328125 -11.703125 C 2.023438 -11.703125 1.773438 -11.804688 1.578125 -12.015625 C 1.378906 -12.222656 1.28125 -12.472656 1.28125 -12.765625 C 1.28125 -13.046875 1.378906 -13.289062 1.578125 -13.5 C 1.773438 -13.707031 2.023438 -13.8125 2.328125 -13.8125 C 2.628906 -13.8125 2.878906 -13.707031 3.078125 -13.5 C 3.285156 -13.289062 3.390625 -13.046875 3.390625 -12.765625 C 3.390625 -12.472656 3.285156 -12.222656 3.078125 -12.015625 C 2.878906 -11.804688 2.628906 -11.703125 2.328125 -11.703125 Z M 2.328125 -11.703125 "/></g></g></g><g fill="#004aad" fill-opacity="1"><g transform="translate(223.452445, 257.14976)"><g><path d="M 5.828125 3.953125 C 5.453125 3.953125 5.148438 3.925781 4.921875 3.875 C 4.691406 3.820312 4.457031 3.753906 4.21875 3.671875 L 4.21875 2.328125 C 4.375 2.367188 4.585938 2.410156 4.859375 2.453125 C 5.140625 2.503906 5.410156 2.53125 5.671875 2.53125 C 6.648438 2.53125 7.382812 2.253906 7.875 1.703125 C 8.375 1.148438 8.625 0.421875 8.625 -0.484375 L 8.625 -2.265625 L 8.46875 -2.265625 C 8.207031 -1.679688 7.785156 -1.1875 7.203125 -0.78125 C 6.617188 -0.375 5.914062 -0.171875 5.09375 -0.171875 C 4.269531 -0.171875 3.546875 -0.378906 2.921875 -0.796875 C 2.296875 -1.222656 1.8125 -1.8125 1.46875 -2.5625 C 1.125 -3.320312 0.953125 -4.191406 0.953125 -5.171875 C 0.953125 -6.140625 1.125 -7.003906 1.46875 -7.765625 C 1.8125 -8.523438 2.296875 -9.113281 2.921875 -9.53125 C 3.546875 -9.957031 4.269531 -10.171875 5.09375 -10.171875 C 5.957031 -10.171875 6.675781 -9.945312 7.25 -9.5 C 7.832031 -9.0625 8.242188 -8.550781 8.484375 -7.96875 L 8.625 -7.96875 L 8.625 -9.859375 L 10.25 -9.859375 L 10.25 -0.484375 C 10.25 0.210938 10.109375 0.894531 9.828125 1.5625 C 9.546875 2.238281 9.070312 2.804688 8.40625 3.265625 C 7.75 3.722656 6.890625 3.953125 5.828125 3.953125 Z M 5.625 -1.5625 C 6.257812 -1.5625 6.800781 -1.726562 7.25 -2.0625 C 7.695312 -2.40625 8.03125 -2.851562 8.25 -3.40625 C 8.46875 -3.96875 8.578125 -4.566406 8.578125 -5.203125 C 8.578125 -5.828125 8.46875 -6.40625 8.25 -6.9375 C 8.03125 -7.476562 7.695312 -7.914062 7.25 -8.25 C 6.8125 -8.59375 6.269531 -8.765625 5.625 -8.765625 C 4.65625 -8.765625 3.914062 -8.414062 3.40625 -7.71875 C 2.90625 -7.03125 2.65625 -6.191406 2.65625 -5.203125 C 2.65625 -4.554688 2.765625 -3.953125 2.984375 -3.390625 C 3.203125 -2.835938 3.53125 -2.394531 3.96875 -2.0625 C 4.414062 -1.726562 4.96875 -1.5625 5.625 -1.5625 Z M 5.625 -1.5625 "/></g></g></g><g fill="#004aad" fill-opacity="1"><g transform="translate(235.229925, 257.14976)"><g><path d="M 5.828125 3.953125 C 5.453125 3.953125 5.148438 3.925781 4.921875 3.875 C 4.691406 3.820312 4.457031 3.753906 4.21875 3.671875 L 4.21875 2.328125 C 4.375 2.367188 4.585938 2.410156 4.859375 2.453125 C 5.140625 2.503906 5.410156 2.53125 5.671875 2.53125 C 6.648438 2.53125 7.382812 2.253906 7.875 1.703125 C 8.375 1.148438 8.625 0.421875 8.625 -0.484375 L 8.625 -2.265625 L 8.46875 -2.265625 C 8.207031 -1.679688 7.785156 -1.1875 7.203125 -0.78125 C 6.617188 -0.375 5.914062 -0.171875 5.09375 -0.171875 C 4.269531 -0.171875 3.546875 -0.378906 2.921875 -0.796875 C 2.296875 -1.222656 1.8125 -1.8125 1.46875 -2.5625 C 1.125 -3.320312 0.953125 -4.191406 0.953125 -5.171875 C 0.953125 -6.140625 1.125 -7.003906 1.46875 -7.765625 C 1.8125 -8.523438 2.296875 -9.113281 2.921875 -9.53125 C 3.546875 -9.957031 4.269531 -10.171875 5.09375 -10.171875 C 5.957031 -10.171875 6.675781 -9.945312 7.25 -9.5 C 7.832031 -9.0625 8.242188 -8.550781 8.484375 -7.96875 L 8.625 -7.96875 L 8.625 -9.859375 L 10.25 -9.859375 L 10.25 -0.484375 C 10.25 0.210938 10.109375 0.894531 9.828125 1.5625 C 9.546875 2.238281 9.070312 2.804688 8.40625 3.265625 C 7.75 3.722656 6.890625 3.953125 5.828125 3.953125 Z M 5.625 -1.5625 C 6.257812 -1.5625 6.800781 -1.726562 7.25 -2.0625 C 7.695312 -2.40625 8.03125 -2.851562 8.25 -3.40625 C 8.46875 -3.96875 8.578125 -4.566406 8.578125 -5.203125 C 8.578125 -5.828125 8.46875 -6.40625 8.25 -6.9375 C 8.03125 -7.476562 7.695312 -7.914062 7.25 -8.25 C 6.8125 -8.59375 6.269531 -8.765625 5.625 -8.765625 C 4.65625 -8.765625 3.914062 -8.414062 3.40625 -7.71875 C 2.90625 -7.03125 2.65625 -6.191406 2.65625 -5.203125 C 2.65625 -4.554688 2.765625 -3.953125 2.984375 -3.390625 C 3.203125 -2.835938 3.53125 -2.394531 3.96875 -2.0625 C 4.414062 -1.726562 4.96875 -1.5625 5.625 -1.5625 Z M 5.625 -1.5625 "/></g></g></g><g fill="#004aad" fill-opacity="1"><g transform="translate(247.007406, 257.14976)"><g><path d="M 5.5625 0.125 C 4.550781 0.125 3.695312 -0.113281 3 -0.59375 C 2.3125 -1.082031 1.796875 -1.71875 1.453125 -2.5 C 1.117188 -3.289062 0.953125 -4.125 0.953125 -5 C 0.953125 -5.882812 1.117188 -6.71875 1.453125 -7.5 C 1.796875 -8.28125 2.316406 -8.914062 3.015625 -9.40625 C 3.710938 -9.894531 4.566406 -10.140625 5.578125 -10.140625 C 6.898438 -10.140625 7.957031 -9.691406 8.75 -8.796875 C 9.550781 -7.910156 9.953125 -6.640625 9.953125 -4.984375 L 9.953125 -4.53125 L 2.5625 -4.53125 L 2.5625 -4.40625 C 2.5625 -3.851562 2.6875 -3.332031 2.9375 -2.84375 C 3.1875 -2.351562 3.535156 -1.957031 3.984375 -1.65625 C 4.441406 -1.363281 4.960938 -1.21875 5.546875 -1.21875 C 6.179688 -1.21875 6.726562 -1.378906 7.1875 -1.703125 C 7.65625 -2.023438 8 -2.460938 8.21875 -3.015625 L 9.8125 -3.015625 C 9.550781 -2.117188 9.0625 -1.367188 8.34375 -0.765625 C 7.625 -0.171875 6.695312 0.125 5.5625 0.125 Z M 8.359375 -5.671875 C 8.304688 -6.796875 8.03125 -7.609375 7.53125 -8.109375 C 7.03125 -8.609375 6.375 -8.859375 5.5625 -8.859375 C 4.675781 -8.859375 3.96875 -8.5625 3.4375 -7.96875 C 2.914062 -7.382812 2.640625 -6.617188 2.609375 -5.671875 Z M 8.359375 -5.671875 "/></g></g></g><g fill="#004aad" fill-opacity="1"><g transform="translate(257.923531, 257.14976)"><g><path d="M 1.328125 -9.875 L 2.9375 -9.875 L 2.9375 -8.296875 L 3.046875 -8.296875 C 3.210938 -8.734375 3.503906 -9.101562 3.921875 -9.40625 C 4.335938 -9.71875 4.867188 -9.875 5.515625 -9.875 C 5.710938 -9.875 5.867188 -9.863281 5.984375 -9.84375 C 6.097656 -9.820312 6.234375 -9.785156 6.390625 -9.734375 L 6.328125 -8.171875 C 6.128906 -8.234375 5.957031 -8.273438 5.8125 -8.296875 C 5.675781 -8.328125 5.492188 -8.34375 5.265625 -8.34375 C 3.710938 -8.34375 2.9375 -7.421875 2.9375 -5.578125 L 2.9375 0 L 1.328125 0 Z M 1.328125 -9.875 "/></g></g></g><g fill="#004aad" fill-opacity="1"><g transform="translate(264.533119, 257.14976)"><g/></g></g><g fill="#004aad" fill-opacity="1"><g transform="translate(268.839657, 257.14976)"><g><path d="M 1.46875 -13.109375 L 3.09375 -13.109375 L 3.09375 0 L 1.46875 0 Z M 1.46875 -13.109375 "/></g></g></g><g fill="#004aad" fill-opacity="1"><g transform="translate(273.520712, 257.14976)"><g><path d="M 1.40625 -9.875 L 3 -9.875 L 3 -8.0625 L 3.140625 -8.0625 C 3.171875 -8.1875 3.296875 -8.410156 3.515625 -8.734375 C 3.742188 -9.066406 4.085938 -9.382812 4.546875 -9.6875 C 5.015625 -9.988281 5.59375 -10.140625 6.28125 -10.140625 C 7 -10.140625 7.597656 -9.96875 8.078125 -9.625 C 8.566406 -9.289062 8.925781 -8.929688 9.15625 -8.546875 C 9.394531 -8.160156 9.515625 -7.914062 9.515625 -7.8125 L 9.671875 -7.8125 C 9.835938 -8.25 10.179688 -8.742188 10.703125 -9.296875 C 11.222656 -9.859375 12.019531 -10.140625 13.09375 -10.140625 C 13.894531 -10.140625 14.5625 -9.9375 15.09375 -9.53125 C 15.632812 -9.125 16.03125 -8.597656 16.28125 -7.953125 C 16.539062 -7.316406 16.671875 -6.640625 16.671875 -5.921875 L 16.671875 0 L 15.078125 0 L 15.078125 -5.765625 C 15.078125 -6.710938 14.828125 -7.429688 14.328125 -7.921875 C 13.835938 -8.410156 13.234375 -8.65625 12.515625 -8.65625 C 11.765625 -8.65625 11.128906 -8.398438 10.609375 -7.890625 C 10.085938 -7.390625 9.828125 -6.679688 9.828125 -5.765625 L 9.828125 0 L 8.25 0 L 8.25 -5.765625 C 8.25 -6.710938 8 -7.429688 7.5 -7.921875 C 7.007812 -8.410156 6.398438 -8.65625 5.671875 -8.65625 C 4.921875 -8.65625 4.285156 -8.398438 3.765625 -7.890625 C 3.253906 -7.390625 3 -6.679688 3 -5.765625 L 3 0 L 1.40625 0 Z M 1.40625 -9.875 "/></g></g></g><g fill="#004aad" fill-opacity="1"><g transform="translate(291.514545, 257.14976)"><g><path d="M 6.53125 0.125 C 5.675781 0.125 4.972656 -0.0820312 4.421875 -0.5 C 3.867188 -0.925781 3.441406 -1.429688 3.140625 -2.015625 L 3.015625 -2.015625 L 3.015625 3.796875 L 1.390625 3.796875 L 1.390625 -9.875 L 3.015625 -9.875 L 3.015625 -8.03125 L 3.140625 -8.03125 C 3.421875 -8.613281 3.828125 -9.109375 4.359375 -9.515625 C 4.898438 -9.929688 5.609375 -10.140625 6.484375 -10.140625 C 7.367188 -10.140625 8.125 -9.914062 8.75 -9.46875 C 9.382812 -9.03125 9.863281 -8.421875 10.1875 -7.640625 C 10.507812 -6.859375 10.671875 -5.976562 10.671875 -5 C 10.671875 -4.03125 10.507812 -3.15625 10.1875 -2.375 C 9.863281 -1.601562 9.390625 -0.992188 8.765625 -0.546875 C 8.140625 -0.0976562 7.394531 0.125 6.53125 0.125 Z M 6.03125 -1.25 C 7.007812 -1.25 7.75 -1.601562 8.25 -2.3125 C 8.757812 -3.03125 9.015625 -3.925781 9.015625 -5 C 9.015625 -6.0625 8.765625 -6.945312 8.265625 -7.65625 C 7.765625 -8.375 7.019531 -8.734375 6.03125 -8.734375 C 5.0625 -8.734375 4.320312 -8.375 3.8125 -7.65625 C 3.300781 -6.945312 3.046875 -6.0625 3.046875 -5 C 3.046875 -3.9375 3.300781 -3.046875 3.8125 -2.328125 C 4.332031 -1.609375 5.070312 -1.25 6.03125 -1.25 Z M 6.03125 -1.25 "/></g></g></g><g fill="#004aad" fill-opacity="1"><g transform="translate(303.160919, 257.14976)"><g><path d="M 5.015625 0.125 C 4.140625 0.125 3.394531 -0.0976562 2.78125 -0.546875 C 2.164062 -0.992188 1.691406 -1.601562 1.359375 -2.375 C 1.035156 -3.15625 0.875 -4.03125 0.875 -5 C 0.875 -5.976562 1.039062 -6.859375 1.375 -7.640625 C 1.707031 -8.421875 2.1875 -9.03125 2.8125 -9.46875 C 3.445312 -9.914062 4.203125 -10.140625 5.078125 -10.140625 C 5.953125 -10.140625 6.65625 -9.929688 7.1875 -9.515625 C 7.726562 -9.109375 8.132812 -8.613281 8.40625 -8.03125 L 8.546875 -8.03125 L 8.546875 -9.875 L 10.171875 -9.875 L 10.171875 0 L 8.546875 0 L 8.546875 -2.015625 L 8.40625 -2.015625 C 8.113281 -1.429688 7.691406 -0.925781 7.140625 -0.5 C 6.585938 -0.0820312 5.878906 0.125 5.015625 0.125 Z M 5.53125 -1.25 C 6.488281 -1.25 7.222656 -1.609375 7.734375 -2.328125 C 8.242188 -3.046875 8.5 -3.9375 8.5 -5 C 8.5 -6.0625 8.242188 -6.953125 7.734375 -7.671875 C 7.222656 -8.390625 6.488281 -8.75 5.53125 -8.75 C 4.539062 -8.75 3.789062 -8.390625 3.28125 -7.671875 C 2.78125 -6.960938 2.53125 -6.078125 2.53125 -5.015625 C 2.53125 -3.941406 2.78125 -3.046875 3.28125 -2.328125 C 3.789062 -1.609375 4.539062 -1.25 5.53125 -1.25 Z M 5.53125 -1.25 "/></g></g></g><g fill="#004aad" fill-opacity="1"><g transform="translate(314.713664, 257.14976)"><g><path d="M 5.625 0.125 C 4.59375 0.125 3.722656 -0.113281 3.015625 -0.59375 C 2.316406 -1.082031 1.796875 -1.71875 1.453125 -2.5 C 1.117188 -3.28125 0.953125 -4.113281 0.953125 -5 C 0.953125 -5.882812 1.117188 -6.71875 1.453125 -7.5 C 1.796875 -8.28125 2.316406 -8.914062 3.015625 -9.40625 C 3.722656 -9.894531 4.59375 -10.140625 5.625 -10.140625 C 6.894531 -10.140625 7.894531 -9.769531 8.625 -9.03125 C 9.351562 -8.289062 9.796875 -7.382812 9.953125 -6.3125 L 8.375 -6.3125 C 8.257812 -7.039062 7.96875 -7.628906 7.5 -8.078125 C 7.039062 -8.535156 6.421875 -8.765625 5.640625 -8.765625 C 4.640625 -8.765625 3.878906 -8.40625 3.359375 -7.6875 C 2.835938 -6.96875 2.578125 -6.070312 2.578125 -5 C 2.578125 -3.925781 2.835938 -3.03125 3.359375 -2.3125 C 3.878906 -1.59375 4.640625 -1.234375 5.640625 -1.234375 C 6.421875 -1.234375 7.039062 -1.457031 7.5 -1.90625 C 7.96875 -2.351562 8.257812 -2.945312 8.375 -3.6875 L 9.953125 -3.6875 C 9.796875 -2.613281 9.351562 -1.707031 8.625 -0.96875 C 7.894531 -0.238281 6.894531 0.125 5.625 0.125 Z M 5.625 0.125 "/></g></g></g><g fill="#004aad" fill-opacity="1"><g transform="translate(325.498725, 257.14976)"><g><path d="M 4.046875 -8.578125 L 4.046875 -2.84375 C 4.046875 -2.382812 4.066406 -2.046875 4.109375 -1.828125 C 4.148438 -1.609375 4.269531 -1.4375 4.46875 -1.3125 C 4.664062 -1.1875 4.984375 -1.125 5.421875 -1.125 C 5.710938 -1.125 6.035156 -1.164062 6.390625 -1.25 L 6.390625 -0.09375 C 6.296875 -0.0507812 6.101562 -0.015625 5.8125 0.015625 C 5.519531 0.0546875 5.21875 0.078125 4.90625 0.078125 C 4.1875 0.078125 3.644531 -0.0234375 3.28125 -0.234375 C 2.925781 -0.441406 2.695312 -0.722656 2.59375 -1.078125 C 2.488281 -1.429688 2.4375 -1.898438 2.4375 -2.484375 L 2.4375 -8.578125 L 0.59375 -8.578125 L 0.59375 -9.875 L 2.4375 -9.875 L 2.4375 -13.109375 L 4.046875 -13.109375 L 4.046875 -9.875 L 6.390625 -9.875 L 6.390625 -8.578125 Z M 4.046875 -8.578125 "/></g></g></g></svg>